<svg xmlns="http://www.w3.org/2000/svg" xmlns:xlink="http://www.w3.org/1999/xlink" viewBox="0 0 1015.27 692.56"><defs><style>.cls-1,.cls-2,.cls-3,.cls-4,.cls-5,.cls-6,.cls-7,.cls-8,.cls-9{stroke:#7f1a11;}.cls-1{fill:url(#linear-gradient);}.cls-2{fill:url(#linear-gradient-2);}.cls-3{fill:#fff;}.cls-4{fill:url(#linear-gradient-3);}.cls-5{fill:url(#linear-gradient-4);}.cls-6{fill:url(#linear-gradient-5);}.cls-7{fill:url(#linear-gradient-6);}.cls-8{fill:url(#linear-gradient-7);}.cls-9{fill:url(#linear-gradient-8);}</style><linearGradient id="linear-gradient" x1="371.94" y1="265.64" x2="39.4" y2="262.57" gradientUnits="userSpaceOnUse"><stop offset="0" stop-color="#77180e"/><stop offset="0.69" stop-color="#be1c19"/></linearGradient><linearGradient id="linear-gradient-2" x1="1120.27" y1="321.29" x2="-79.67" y2="321.29" gradientUnits="userSpaceOnUse"><stop offset="0" stop-color="#77180e"/><stop offset="0.51" stop-color="#be1c19"/><stop offset="1" stop-color="#77180e"/></linearGradient><linearGradient id="linear-gradient-3" x1="1120.24" y1="200.55" x2="-79.69" y2="200.55" xlink:href="#linear-gradient-2"/><linearGradient id="linear-gradient-4" x1="1011.7" y1="422.58" x2="790.69" y2="422.58" gradientUnits="userSpaceOnUse"><stop offset="0" stop-color="#77180e"/><stop offset="1" stop-color="#be1c19"/></linearGradient><linearGradient id="linear-gradient-5" x1="1120.24" y1="329.2" x2="-79.7" y2="329.2" xlink:href="#linear-gradient-2"/><linearGradient id="linear-gradient-6" x1="1120.24" y1="323.29" x2="-79.7" y2="323.29" xlink:href="#linear-gradient-2"/><linearGradient id="linear-gradient-7" x1="1120.24" y1="321.35" x2="-79.7" y2="321.35" xlink:href="#linear-gradient-2"/><linearGradient id="linear-gradient-8" x1="1120.24" y1="447.06" x2="-79.7" y2="447.06" xlink:href="#linear-gradient-2"/></defs><g id="Слой_2" data-name="Слой 2"><g id="Layer_1" data-name="Layer 1"><path class="cls-1" d="M309.41.7c25,1.19,51.81,2.48,64.8,16.56,1.23,2.44,2,4.19-.24,6.72a37.71,37.71,0,0,1-6.72,8.16C364.43,35,358.44,40,354.19,42c-3.41,2.69-9,4.75-19.25,7.25-7.7,3-25.92,5-41.85,4.78-13.9.22-38.91-2.21-45.15-2.53-9.27-.42-19.68-1.87-30.69-2.75-12.56-1-26.81-3.75-34.81-1.5,3.5,23,69.53,462.3,69.37,462.54-6.24-1.51-26.49,5.2-31.44,7.68-1.36,0-40.12,10.8-56.88,10.8-13.52,0-24.9-3.45-35-6.24-2.47-.68-9.85-4.83-10.32-4.32-2.06-1.41-117-482.13-117.6-486,.08-.08,26,9.2,27.84,9.36,19.25,7,55.65,10.82,80.16,4.8,9.66-1.87,17-3.54,20.16-4.8,16.75-5.07,28.25-10.32,39.6-14.88C180.4,21.28,201.19,16,215.09,12c5.85-1.28,12.6-2.78,18.48-3.84,15.4-3.8,31.37-4.69,47.52-6.48A190.53,190.53,0,0,1,309.41.7Z"/><path class="cls-2" d="M577.94,36.7c34.75-1.75,67-2.75,96.5,1.25,12.75,1.5,31.38,4.61,39.25,6.75,24.38,4.61,59.5,17.25,69.24,22.48,9.76,4.77,21.68,14.55,26.16,17,.75,8.22-59.86,520-61.2,523.2-.77-1.09-9.29-16.13-14.16-19.2a14.51,14.51,0,0,0-3.79-2.15c-8.25-3.87-19.73-2.41-33.89-2.41-23.2,0-324.08-1.36-333.84-1.44a56.24,56.24,0,0,1-13.92-1c-15.6-1.31-42.1-3.56-50.4-5.76a18.2,18.2,0,0,1-8.64-4.56c-6.81-5.49-14.56-14.24-16.56-27.6-.76-5.07,1.82-8.67,1-13-.64-2.08-65-434.93-69.36-467.76,6.9,1.08,11.14,1.84,15.12,1.92,7.78.91,26.14,3.51,32.78,3.91,10,.75,19.46,1,26.74,1.13h37.2c7.09,0,24.81-1.63,36.24-3.12,14.32-2.76,33.57-6.76,43.92-9.12,2.46-.45,27-5.12,31.92-5.52C431.49,50.13,569.94,37,577.94,36.7Z"/><path class="cls-3" d="M437.69,109.6c0,42,0,99.34.12,130.38H308.69c.33,50-.05,113.44.33,159.55H437.69c.08,30.23,0,73.07,0,123.67h160c0-33.6,0-79.27.44-123.86-36.74,0,100.63.19,121.23.19,0-46.26.11-130.82.21-159.07L597.65,240c-.24-.4.44-129.9,0-130.38Z"/><path class="cls-4" d="M507.07,144c0,19.43.75,42.75.82,82.35a189.76,189.76,0,0,0,19.3-.1c-.08-20.32.13-37.13-.12-82.25h41c0,22.37-.06,63.24,0,75.87,5.29.13,6.45.12,12,0-13.88,15.63-18.88,20.63-35.22,37.44-3.78-8.81-1.16-2.19-7.2-17.52-23.68-.08-47.95.2-71.63.12-.08-31.51.09-64.4,0-95.91C466.27,143.71,493.44,144,507.07,144Z"/><path class="cls-5" d="M842.45,207.1a67.56,67.56,0,0,0,13.92,11.76c1.12.24,10.09,4.85,11.52,5.28,1.44.16,12.05,4.06,14.64,4.32a100.42,100.42,0,0,0,18.24,2.4c8,.36,34.4-1.6,37.68-1.68,29.49-3.73,34.24-4.48,48.48-9.84,4.36-1.23,13.11-4.09,15.36-5,2.51-1.1,7.65-2.6,12.48-4.56V210c-.65,2.4-96.4,461.66-99.84,464.88-1.4,1.31-12.24,4.84-19.2,7.2a126,126,0,0,1-16.56,4.56c-7.73,1.83-20,3.83-25.44,4.56a145.45,145.45,0,0,1-29.28.24c-14.76-1.72-27.85-4-39.36-11.52-20.15-13.2-25.4-19.2-30.24-30.72,0-2.94,1.18-4.29,1.68-6.48.08-4.16,63.6-489.76,63.6-489.6,1.16,2.36,1.31,18.35,6.24,28.8C829.44,188.7,837.67,201.85,842.45,207.1Z"/><path class="cls-6" d="M334.19,275.53c.79,0,39.76-.2,40,0-.25,39.17-.57,51.74-.25,78.67a172.29,172.29,0,0,0,22.75,0c-.25-35.5.25-44.5-.25-78.67h41.25c0,28.67,0,37.67-.05,71.61,5.55,1.81,4.8,1.56,9.12,3.15-14.32,14.41-20.82,20.41-35,32.66-3-6.75-3.28-8-6.24-15.77-22.79-.32-38.54-.32-70.79-.32C334.61,359.51,334.69,333.2,334.19,275.53Z"/><path class="cls-7" d="M466,275.53c3.65,0,31.4,0,40.73,0,.08,10.92.34,21.32.42,32.24H512c12.56-12.91,22.06-22.07,32.12-32.24,8.88.08,27.93-.24,28.17,0-10.9,11-16.25,15.8-24.29,23.87,0,1,29.28,44.4,29.28,45.44-15.39,10.36-22.06,14.69-40.56,26.31-9.83-15.95-19.15-33.08-25.48-43.08-1.32,0-2.67,0-4,0,.26,14.81.15,23.93,0,38.76-7.61.15-35.33,0-41.23,0C465.94,343.43,466,282.76,466,275.53Z"/><path class="cls-8" d="M689.57,275.53c.06,6.26,0,13.42.25,29-19.5-5.87-30.27-11.76-52.5-17.5-.13,8.38.12,10.88,0,16.75,15.62-.62,31.55.92,35.5,2.38,3.75,1.12,11.37,4,13.52,5.58.48.79,7.71,6.76,10.08,9.9a11.83,11.83,0,0,1,2.52,4.27c1.38,3.25,1.38,16.62-.12,20-1,5.24-8.88,12.11-13.44,14.61-10.41,6.74-30.06,7.25-46.8,6.13-9.6,0-24.89.16-40.89.16V275.53Z"/><path class="cls-3" d="M637.25,310.78c0,15.84.19,32.29.19,48.67,1-.08,10.79-5.36,13.63-8.88.64-.32,3.25-4.75,3.94-6.67,2.41-6.67.56-19.08-2.64-23C650,317.94,637.65,310.62,637.25,310.78Z"/><path class="cls-9" d="M465.89,399.84c28.86-.31,55.13-.64,90.86-.31.44,9.89.61,17.83.34,31.11-19.9-5.94-30.07-9.11-50.16-15,.09,4.76.09,8.6-.07,13.76,4.18,0,22.16,1,28.5,1.84a55.15,55.15,0,0,1,11,3,56.1,56.1,0,0,1,11.83,6c5.5,4.33,10.21,6.94,9.84,23.23-1,8.77-2.51,13.1-6.17,17.1-5.69,6.2-21.34,14.83-34,14.17-11.84-.17-50-.78-61.84-.94C466,451.42,466,433.42,465.89,399.84Z"/><path class="cls-3" d="M507.19,433.36c.33,16.17.5,29.84.33,49.34,5.37.09,7.47-2,10.34-4.17a25.45,25.45,0,0,0,1-39.83C516.16,436.42,512.52,434.7,507.19,433.36Z"/></g></g></svg>